<svg width="33" height="33" viewBox="0 0 33 33" fill="none" xmlns="http://www.w3.org/2000/svg">
<path d="M28.3132 0.6875H4.93616C3.79269 0.6875 2.69605 1.14174 1.88749 1.9503C1.07894 2.75886 0.624695 3.85549 0.624695 4.99897L0.624695 28.376C0.624695 29.5195 1.07894 30.6161 1.88749 31.4247C2.69605 32.2333 3.79269 32.6875 4.93616 32.6875H16.4562L16.4775 21.2528H13.5143C13.3289 21.2528 13.151 21.1795 13.0195 21.0488C12.888 20.9181 12.8136 20.7406 12.8124 20.5552L12.7996 16.8688C12.7991 16.7766 12.8167 16.6851 12.8517 16.5997C12.8866 16.5144 12.938 16.4367 13.0031 16.3713C13.0681 16.3059 13.1454 16.2539 13.2306 16.2185C13.3158 16.1831 13.4071 16.1648 13.4994 16.1648H16.4647V12.6022C16.4647 8.4699 18.9906 6.21923 22.677 6.21923H25.702C25.7942 6.21923 25.8855 6.23739 25.9706 6.27266C26.0558 6.30793 26.1331 6.35963 26.1983 6.42481C26.2635 6.48998 26.3152 6.56735 26.3505 6.65251C26.3857 6.73766 26.4039 6.82893 26.4039 6.9211V10.0272C26.4039 10.1194 26.3857 10.2107 26.3505 10.2958C26.3152 10.381 26.2635 10.4584 26.1983 10.5235C26.1331 10.5887 26.0558 10.6404 25.9706 10.6757C25.8855 10.7109 25.7942 10.7291 25.702 10.7291H23.846C21.8407 10.7291 21.4524 11.6827 21.4524 13.0758V16.1648H25.8599C25.9588 16.1651 26.0565 16.1862 26.1466 16.2268C26.2367 16.2675 26.3173 16.3267 26.3829 16.4006C26.4486 16.4745 26.4979 16.5615 26.5276 16.6558C26.5573 16.75 26.5668 16.8496 26.5554 16.9478L26.1287 20.6342C26.1084 20.8044 26.0264 20.9614 25.8983 21.0754C25.7701 21.1894 25.6047 21.2525 25.4332 21.2528H21.4716L21.4524 32.6875H28.3132C29.4567 32.6875 30.5533 32.2333 31.3619 31.4247C32.1705 30.6161 32.6247 29.5195 32.6247 28.376V4.99897C32.6247 3.85549 32.1705 2.75886 31.3619 1.9503C30.5533 1.14174 29.4567 0.6875 28.3132 0.6875Z" fill="white"/>
</svg>
